<?xml version="1.0"?><svg width="640" height="480" xmlns="http://www.w3.org/2000/svg">
 <metadata id="metadata2899">image/svg+xml</metadata>
 <g>
  <title>Layer 1</title>
  <path fill="none" fill-rule="evenodd" stroke="#000000" stroke-width="3" d="m4.655814,114.541069c21.133192,-15.035461 42.266386,-60.14156 84.53277,-60.14156c42.266388,0 42.266388,60.14156 84.532761,60.14156c42.266388,0 42.266388,-60.14156 84.532776,-60.14156c42.266388,0 42.266388,60.14156 84.532196,60.14156c42.266388,0 42.266388,-60.14156 84.532776,-60.14156c42.266388,0 42.266388,60.14156 84.532776,60.14156c42.266357,0 42.266357,-60.14156 84.532776,-60.14156c42.266357,0 42.266357,60.14156 84.532166,60.14156c42.266968,0 42.266968,-60.14156 84.532776,-60.14156c42.266418,0 63.399597,45.106098 84.532776,60.14156" id="path2454"/>
 </g>
</svg>